<svg xmlns="http://www.w3.org/2000/svg" xmlns:xlink="http://www.w3.org/1999/xlink" width="500" zoomAndPan="magnify" viewBox="0 0 375 374.999991" height="500" preserveAspectRatio="xMidYMid meet" version="1.0"><defs><g/><clipPath id="3aa528b670"><path d="M 126.1875 71.585938 L 248.4375 71.585938 L 248.4375 200.585938 L 126.1875 200.585938 Z M 126.1875 71.585938 " clip-rule="nonzero"/></clipPath></defs><rect x="-37.5" width="450" fill="#ffffff" y="-37.499999" height="449.999989" fill-opacity="1"/><rect x="-37.5" width="450" fill="#ffffff" y="-37.499999" height="449.999989" fill-opacity="1"/><g clip-path="url(#3aa528b670)"><path fill="#070652" d="M 248.082031 147.449219 L 187.492188 110.324219 L 187.492188 93.511719 L 248.082031 130.636719 C 248.082031 109.21875 248.082031 84.132812 248.082031 79.457031 C 248.082031 72.027344 241.496094 71.636719 241.496094 71.636719 L 133.488281 71.636719 C 133.488281 71.636719 126.898438 72.027344 126.898438 79.457031 C 126.898438 82.285156 126.898438 94.292969 126.898438 108.082031 L 187.492188 145.207031 L 187.492188 162.015625 L 126.898438 124.890625 C 126.898438 143.921875 126.898438 157.644531 126.898438 157.644531 C 126.898438 157.644531 126.1875 163.484375 130.632812 166.417969 C 135.078125 169.351562 181.3125 197.609375 181.3125 197.609375 C 181.3125 197.609375 185.460938 200.429688 187.492188 200.0625 C 189.523438 200.429688 193.667969 197.609375 193.667969 197.609375 C 193.667969 197.609375 239.902344 169.351562 244.347656 166.417969 C 248.796875 163.484375 248.082031 157.644531 248.082031 157.644531 C 248.082031 157.644531 248.082031 153.644531 248.082031 147.449219 Z M 248.082031 147.449219 " fill-opacity="1" fill-rule="nonzero"/></g><g fill="#070652" fill-opacity="1"><g transform="translate(96.843073, 253.094295)"><g><path d="M 3.765625 -5.28125 L 3.765625 0 L 37.0625 0 L 37.0625 -6.328125 L 13.046875 -6.328125 L 37.0625 -35.328125 L 37.0625 -40.59375 L 4.53125 -40.59375 L 4.53125 -34.28125 L 27.71875 -34.28125 Z M 3.765625 -5.28125 "/></g></g></g><g fill="#070652" fill-opacity="1"><g transform="translate(148.286357, 253.094295)"><g><path d="M 9.34375 -5.453125 C 13.320312 -1.347656 18.40625 0.703125 24.59375 0.703125 C 30.738281 0.703125 35.84375 -1.367188 39.90625 -5.515625 C 43.882812 -9.535156 45.875 -14.460938 45.875 -20.296875 L 45.875 -20.421875 C 45.875 -26.253906 43.90625 -31.160156 39.96875 -35.140625 C 35.976562 -39.242188 30.890625 -41.296875 24.703125 -41.296875 C 18.554688 -41.296875 13.453125 -39.226562 9.390625 -35.09375 C 5.410156 -31.070312 3.421875 -26.140625 3.421875 -20.296875 L 3.421875 -20.1875 C 3.421875 -14.382812 5.394531 -9.472656 9.34375 -5.453125 Z M 34.5625 -10.09375 C 31.976562 -7.3125 28.691406 -5.921875 24.703125 -5.921875 C 20.679688 -5.921875 17.378906 -7.332031 14.796875 -10.15625 C 12.203125 -12.851562 10.90625 -16.234375 10.90625 -20.296875 L 10.90625 -20.421875 C 10.90625 -24.472656 12.179688 -27.851562 14.734375 -30.5625 C 17.359375 -33.34375 20.644531 -34.734375 24.59375 -34.734375 C 28.613281 -34.734375 31.921875 -33.328125 34.515625 -30.515625 C 37.097656 -27.765625 38.390625 -24.359375 38.390625 -20.296875 L 38.390625 -20.1875 C 38.390625 -16.195312 37.113281 -12.832031 34.5625 -10.09375 Z M 34.5625 -10.09375 "/></g></g></g><g fill="#070652" fill-opacity="1"><g transform="translate(208.313075, 253.094295)"><g><path d="M 3.765625 -5.28125 L 3.765625 0 L 37.0625 0 L 37.0625 -6.328125 L 13.046875 -6.328125 L 37.0625 -35.328125 L 37.0625 -40.59375 L 4.53125 -40.59375 L 4.53125 -34.28125 L 27.71875 -34.28125 Z M 3.765625 -5.28125 "/></g></g></g><g fill="#070652" fill-opacity="1"><g transform="translate(259.756358, 253.094295)"><g><path d="M 5.625 -40.59375 L 5.625 0 L 12.765625 0 L 12.765625 -40.59375 Z M 5.625 -40.59375 "/></g></g></g><g fill="#070652" fill-opacity="1"><g transform="translate(90.73302, 277.094307)"><g><path d="M 4.359375 -5.015625 L 8.0625 -5.015625 L 8.0625 -0.40625 C 7.625 -0.25 7.117188 -0.117188 6.546875 -0.015625 C 5.972656 0.078125 5.375 0.125 4.75 0.125 C 3.925781 0.125 3.203125 -0.0351562 2.578125 -0.359375 C 1.960938 -0.679688 1.476562 -1.171875 1.125 -1.828125 C 0.78125 -2.484375 0.609375 -3.3125 0.609375 -4.3125 C 0.609375 -5.207031 0.78125 -5.984375 1.125 -6.640625 C 1.46875 -7.296875 1.972656 -7.800781 2.640625 -8.15625 C 3.316406 -8.507812 4.140625 -8.6875 5.109375 -8.6875 C 5.640625 -8.6875 6.144531 -8.632812 6.625 -8.53125 C 7.113281 -8.4375 7.535156 -8.3125 7.890625 -8.15625 L 7.15625 -6.328125 C 6.84375 -6.484375 6.519531 -6.597656 6.1875 -6.671875 C 5.863281 -6.753906 5.507812 -6.796875 5.125 -6.796875 C 4.613281 -6.796875 4.203125 -6.675781 3.890625 -6.4375 C 3.578125 -6.207031 3.347656 -5.898438 3.203125 -5.515625 C 3.066406 -5.140625 3 -4.71875 3 -4.25 C 3 -3.71875 3.070312 -3.269531 3.21875 -2.90625 C 3.375 -2.539062 3.597656 -2.257812 3.890625 -2.0625 C 4.179688 -1.875 4.535156 -1.78125 4.953125 -1.78125 C 5.085938 -1.78125 5.253906 -1.789062 5.453125 -1.8125 C 5.648438 -1.832031 5.796875 -1.859375 5.890625 -1.890625 L 5.890625 -3.234375 L 4.359375 -3.234375 Z M 4.359375 -5.015625 "/></g></g></g><g fill="#070652" fill-opacity="1"><g transform="translate(108.031105, 277.094307)"><g><path d="M 0.921875 0 L 0.921875 -8.5625 L 3.25 -8.5625 L 3.25 0 Z M 0.921875 0 "/></g></g></g><g fill="#070652" fill-opacity="1"><g transform="translate(120.628711, 277.094307)"><g><path d="M 3.203125 0 L 0.921875 0 L 0.921875 -8.5625 L 5.984375 -8.5625 L 5.984375 -6.703125 L 3.203125 -6.703125 L 3.203125 -5.078125 L 5.765625 -5.078125 L 5.765625 -3.21875 L 3.203125 -3.21875 Z M 3.203125 0 "/></g></g></g><g fill="#070652" fill-opacity="1"><g transform="translate(135.515091, 277.094307)"><g><path d="M 4.703125 0 L 2.390625 0 L 2.390625 -6.671875 L 0.296875 -6.671875 L 0.296875 -8.5625 L 6.796875 -8.5625 L 6.796875 -6.671875 L 4.703125 -6.671875 Z M 4.703125 0 "/></g></g></g><g fill="#070652" fill-opacity="1"><g transform="translate(151.021957, 277.094307)"><g/></g></g><g fill="#070652" fill-opacity="1"><g transform="translate(162.56005, 277.094307)"><g><path d="M 6.53125 -2.609375 C 6.53125 -2.140625 6.410156 -1.695312 6.171875 -1.28125 C 5.941406 -0.863281 5.578125 -0.523438 5.078125 -0.265625 C 4.585938 -0.00390625 3.953125 0.125 3.171875 0.125 C 2.773438 0.125 2.429688 0.101562 2.140625 0.0625 C 1.847656 0.03125 1.570312 -0.0234375 1.3125 -0.109375 C 1.0625 -0.191406 0.800781 -0.296875 0.53125 -0.421875 L 0.53125 -2.484375 C 0.988281 -2.253906 1.453125 -2.078125 1.921875 -1.953125 C 2.398438 -1.828125 2.832031 -1.765625 3.21875 -1.765625 C 3.445312 -1.765625 3.632812 -1.789062 3.78125 -1.84375 C 3.925781 -1.894531 4.035156 -1.96875 4.109375 -2.0625 C 4.179688 -2.164062 4.21875 -2.28125 4.21875 -2.40625 C 4.21875 -2.550781 4.164062 -2.675781 4.0625 -2.78125 C 3.957031 -2.882812 3.789062 -2.992188 3.5625 -3.109375 C 3.332031 -3.222656 3.035156 -3.363281 2.671875 -3.53125 C 2.347656 -3.675781 2.054688 -3.828125 1.796875 -3.984375 C 1.546875 -4.140625 1.328125 -4.316406 1.140625 -4.515625 C 0.960938 -4.722656 0.828125 -4.957031 0.734375 -5.21875 C 0.640625 -5.488281 0.59375 -5.8125 0.59375 -6.1875 C 0.59375 -6.738281 0.726562 -7.195312 1 -7.5625 C 1.269531 -7.9375 1.644531 -8.21875 2.125 -8.40625 C 2.613281 -8.59375 3.175781 -8.6875 3.8125 -8.6875 C 4.375 -8.6875 4.878906 -8.625 5.328125 -8.5 C 5.773438 -8.375 6.175781 -8.234375 6.53125 -8.078125 L 5.8125 -6.28125 C 5.445312 -6.457031 5.085938 -6.59375 4.734375 -6.6875 C 4.378906 -6.789062 4.050781 -6.84375 3.75 -6.84375 C 3.550781 -6.84375 3.382812 -6.816406 3.25 -6.765625 C 3.125 -6.710938 3.03125 -6.644531 2.96875 -6.5625 C 2.914062 -6.488281 2.890625 -6.394531 2.890625 -6.28125 C 2.890625 -6.15625 2.9375 -6.035156 3.03125 -5.921875 C 3.132812 -5.816406 3.304688 -5.703125 3.546875 -5.578125 C 3.796875 -5.460938 4.132812 -5.304688 4.5625 -5.109375 C 4.976562 -4.921875 5.332031 -4.71875 5.625 -4.5 C 5.914062 -4.28125 6.140625 -4.019531 6.296875 -3.71875 C 6.453125 -3.414062 6.53125 -3.046875 6.53125 -2.609375 Z M 6.53125 -2.609375 "/></g></g></g><g fill="#070652" fill-opacity="1"><g transform="translate(177.903017, 277.094307)"><g><path d="M 8.9375 -4.296875 C 8.9375 -3.640625 8.859375 -3.039062 8.703125 -2.5 C 8.546875 -1.957031 8.296875 -1.488281 7.953125 -1.09375 C 7.617188 -0.707031 7.1875 -0.40625 6.65625 -0.1875 C 6.132812 0.0195312 5.507812 0.125 4.78125 0.125 C 4.0625 0.125 3.4375 0.0195312 2.90625 -0.1875 C 2.382812 -0.40625 1.953125 -0.707031 1.609375 -1.09375 C 1.273438 -1.476562 1.023438 -1.941406 0.859375 -2.484375 C 0.691406 -3.035156 0.609375 -3.644531 0.609375 -4.3125 C 0.609375 -5.195312 0.753906 -5.96875 1.046875 -6.625 C 1.347656 -7.289062 1.804688 -7.800781 2.421875 -8.15625 C 3.035156 -8.519531 3.820312 -8.703125 4.78125 -8.703125 C 5.757812 -8.703125 6.554688 -8.519531 7.171875 -8.15625 C 7.785156 -7.789062 8.234375 -7.273438 8.515625 -6.609375 C 8.796875 -5.953125 8.9375 -5.179688 8.9375 -4.296875 Z M 3.046875 -4.296875 C 3.046875 -3.773438 3.101562 -3.328125 3.21875 -2.953125 C 3.34375 -2.585938 3.53125 -2.304688 3.78125 -2.109375 C 4.03125 -1.910156 4.363281 -1.8125 4.78125 -1.8125 C 5.207031 -1.8125 5.546875 -1.910156 5.796875 -2.109375 C 6.046875 -2.304688 6.222656 -2.585938 6.328125 -2.953125 C 6.441406 -3.328125 6.5 -3.773438 6.5 -4.296875 C 6.5 -5.066406 6.367188 -5.675781 6.109375 -6.125 C 5.859375 -6.570312 5.414062 -6.796875 4.78125 -6.796875 C 4.363281 -6.796875 4.023438 -6.691406 3.765625 -6.484375 C 3.515625 -6.285156 3.332031 -6 3.21875 -5.625 C 3.101562 -5.25 3.046875 -4.804688 3.046875 -4.296875 Z M 3.046875 -4.296875 "/></g></g></g><g fill="#070652" fill-opacity="1"><g transform="translate(195.880127, 277.094307)"><g><path d="M 8.203125 -8.5625 L 8.203125 -3.40625 C 8.203125 -2.6875 8.066406 -2.0625 7.796875 -1.53125 C 7.523438 -1.007812 7.113281 -0.601562 6.5625 -0.3125 C 6.019531 -0.0195312 5.335938 0.125 4.515625 0.125 C 3.335938 0.125 2.4375 -0.175781 1.8125 -0.78125 C 1.1875 -1.394531 0.875 -2.253906 0.875 -3.359375 L 0.875 -8.5625 L 3.203125 -8.5625 L 3.203125 -3.546875 C 3.203125 -2.929688 3.316406 -2.488281 3.546875 -2.21875 C 3.773438 -1.945312 4.109375 -1.8125 4.546875 -1.8125 C 4.859375 -1.8125 5.113281 -1.867188 5.3125 -1.984375 C 5.519531 -2.109375 5.664062 -2.296875 5.75 -2.546875 C 5.84375 -2.804688 5.890625 -3.140625 5.890625 -3.546875 L 5.890625 -8.5625 Z M 8.203125 -8.5625 "/></g></g></g><g fill="#070652" fill-opacity="1"><g transform="translate(213.377238, 277.094307)"><g><path d="M 8.328125 -8.5625 L 5.515625 0 L 2.796875 0 L 0 -8.5625 L 2.609375 -8.5625 L 3.765625 -4.21875 C 3.804688 -4.0625 3.851562 -3.851562 3.90625 -3.59375 C 3.96875 -3.34375 4.023438 -3.085938 4.078125 -2.828125 C 4.128906 -2.578125 4.160156 -2.367188 4.171875 -2.203125 C 4.179688 -2.367188 4.207031 -2.578125 4.25 -2.828125 C 4.289062 -3.078125 4.335938 -3.328125 4.390625 -3.578125 C 4.453125 -3.828125 4.503906 -4.035156 4.546875 -4.203125 L 5.734375 -8.5625 Z M 8.328125 -8.5625 "/></g></g></g><g fill="#070652" fill-opacity="1"><g transform="translate(230.119234, 277.094307)"><g><path d="M 6.015625 0 L 0.921875 0 L 0.921875 -8.5625 L 6.015625 -8.5625 L 6.015625 -6.703125 L 3.234375 -6.703125 L 3.234375 -5.359375 L 5.8125 -5.359375 L 5.8125 -3.5 L 3.234375 -3.5 L 3.234375 -1.890625 L 6.015625 -1.890625 Z M 6.015625 0 "/></g></g></g><g fill="#070652" fill-opacity="1"><g transform="translate(245.122689, 277.094307)"><g><path d="M 9.078125 0 L 6.046875 0 L 2.921875 -6.03125 L 2.859375 -6.03125 C 2.878906 -5.851562 2.894531 -5.632812 2.90625 -5.375 C 2.925781 -5.113281 2.941406 -4.847656 2.953125 -4.578125 C 2.972656 -4.316406 2.984375 -4.078125 2.984375 -3.859375 L 2.984375 0 L 0.921875 0 L 0.921875 -8.5625 L 3.953125 -8.5625 L 7.0625 -2.609375 L 7.109375 -2.609375 C 7.085938 -2.796875 7.070312 -3.015625 7.0625 -3.265625 C 7.050781 -3.515625 7.039062 -3.765625 7.03125 -4.015625 C 7.019531 -4.273438 7.015625 -4.5 7.015625 -4.6875 L 7.015625 -8.5625 L 9.078125 -8.5625 Z M 9.078125 0 "/></g></g></g><g fill="#070652" fill-opacity="1"><g transform="translate(263.544677, 277.094307)"><g><path d="M 0.921875 0 L 0.921875 -8.5625 L 3.25 -8.5625 L 3.25 0 Z M 0.921875 0 "/></g></g></g><g fill="#070652" fill-opacity="1"><g transform="translate(276.142287, 277.094307)"><g><path d="M 3.734375 -8.5625 C 4.515625 -8.5625 5.160156 -8.46875 5.671875 -8.28125 C 6.191406 -8.09375 6.578125 -7.8125 6.828125 -7.4375 C 7.085938 -7.0625 7.21875 -6.59375 7.21875 -6.03125 C 7.21875 -5.6875 7.160156 -5.367188 7.046875 -5.078125 C 6.929688 -4.796875 6.765625 -4.539062 6.546875 -4.3125 C 6.328125 -4.09375 6.066406 -3.898438 5.765625 -3.734375 L 8.265625 0 L 5.640625 0 L 3.828125 -3.125 L 3.234375 -3.125 L 3.234375 0 L 0.921875 0 L 0.921875 -8.5625 Z M 3.703125 -6.8125 L 3.234375 -6.8125 L 3.234375 -4.859375 L 3.671875 -4.859375 C 4.023438 -4.859375 4.316406 -4.9375 4.546875 -5.09375 C 4.773438 -5.25 4.890625 -5.53125 4.890625 -5.9375 C 4.890625 -6.207031 4.796875 -6.421875 4.609375 -6.578125 C 4.421875 -6.734375 4.117188 -6.8125 3.703125 -6.8125 Z M 3.703125 -6.8125 "/></g></g></g></svg>